# xmcd
#
# Track frame offsets:
#	150
#	23004
#	38838
#	51132
#	67865
#	85358
#	97330
#	109763
#	119825
#
# Disc length: 1783 seconds
#
# Revision: 1
# Processed by: cddbd v1.4PL0 Copyright (c) Steve Scherf et al.
# Submitted via: audiograbber 1.82.02
#
DISCID=7806f509
DTITLE=Red Sovine - Golden Hits
DYEAR=1900
DGENRE=
TTITLE0=Teddy Bear
TTITLE1=Daddy's Girl
TTITLE2=I Didn't Jump The Fence
TTITLE3=Bootlegger King
TTITLE4=Little Rosa
TTITLE5=Lay Down Sally
TTITLE6=The Last Goodbye
TTITLE7=Six Days On The Road
TTITLE8=18 Wheels A Hummin' Home Sweet Home
EXTD=
EXTT0=
EXTT1=
EXTT2=
EXTT3=
EXTT4=
EXTT5=
EXTT6=
EXTT7=
EXTT8=
PLAYORDER=
